<svg width="18" height="12" viewBox="0 0 18 12" fill="none" xmlns="http://www.w3.org/2000/svg">
<path d="M2.56062 4.50003H11.25C11.6643 4.50003 12 4.16424 12 3.75003C12 3.33581 11.6643 3.00003 11.25 3.00003H2.56062L4.28031 1.28034C4.5732 0.987454 4.5732 0.512558 4.28031 0.219668C3.98742 -0.0732225 3.51252 -0.0732225 3.21963 0.219668L0.219571 3.21969C0.202098 3.23716 0.185574 3.25555 0.169895 3.27468C0.162793 3.28332 0.156605 3.29247 0.149961 3.30136C0.141945 3.31205 0.133683 3.32249 0.12623 3.33363C0.119093 3.34429 0.112906 3.35536 0.106366 3.36629C0.100355 3.37635 0.0940265 3.38619 0.0884717 3.39656C0.0824951 3.40771 0.0774325 3.4192 0.0720887 3.4306C0.066991 3.44139 0.061612 3.45201 0.0570065 3.46308C0.0524361 3.47415 0.0487095 3.48548 0.0447017 3.49673C0.0404477 3.50857 0.0359125 3.52025 0.0322562 3.53234C0.028846 3.54359 0.0263499 3.55501 0.0235022 3.56641C0.0203733 3.57875 0.0169279 3.59095 0.0144318 3.60353C0.0118302 3.61671 0.0102833 3.63 0.00838484 3.64326C0.00683794 3.65419 0.00472854 3.66498 0.00363869 3.67606C-0.0012129 3.72529 -0.0012129 3.77487 0.00363869 3.8241C0.00472854 3.83518 0.00680279 3.84594 0.00838484 3.85691C0.0102833 3.87016 0.0118302 3.88348 0.0144669 3.89663C0.0169631 3.90922 0.0204084 3.92138 0.0235374 3.93372C0.026385 3.94511 0.0288812 3.95654 0.0322914 3.96779C0.0359477 3.97988 0.0404829 3.99159 0.0447368 4.0034C0.0487798 4.01465 0.0524713 4.02597 0.0570417 4.03705C0.061612 4.04812 0.0670261 4.0587 0.0721239 4.0695C0.0775028 4.08089 0.0825654 4.09238 0.088542 4.10356C0.0940968 4.1139 0.10039 4.12371 0.106402 4.13376C0.112941 4.14473 0.119128 4.15581 0.126265 4.16649C0.133683 4.1776 0.141945 4.18801 0.149926 4.1987C0.156605 4.20763 0.162793 4.21677 0.16993 4.22545C0.185504 4.24444 0.201922 4.26268 0.219254 4.28002L0.219606 4.2804L3.21963 7.28043C3.51252 7.57332 3.98742 7.57332 4.28031 7.28043C4.5732 6.98754 4.5732 6.51264 4.28031 6.21975L2.56062 4.50003ZM17.8301 8.72547C17.8373 8.71675 17.8435 8.70757 17.8502 8.69861C17.8581 8.68799 17.8664 8.67759 17.8738 8.66651C17.8809 8.65582 17.8871 8.64471 17.8937 8.63375C17.8996 8.62373 17.9059 8.61392 17.9115 8.60362C17.9174 8.59244 17.9225 8.5809 17.9279 8.56948C17.933 8.55872 17.9384 8.54814 17.943 8.5371C17.9475 8.52603 17.9513 8.51471 17.9553 8.50346C17.9595 8.49161 17.9641 8.47994 17.9677 8.46784C17.9711 8.45659 17.9736 8.44513 17.9765 8.43377C17.9796 8.42144 17.983 8.40924 17.9855 8.39668C17.9881 8.3835 17.9897 8.37021 17.9916 8.35696C17.9932 8.34602 17.9953 8.33527 17.9964 8.32416C18.0012 8.27494 18.0012 8.22533 17.9964 8.17611C17.9953 8.16504 17.9932 8.15428 17.9916 8.14331C17.9897 8.13006 17.9882 8.11673 17.9855 8.10358C17.983 8.091 17.9796 8.07883 17.9765 8.06649C17.9736 8.0551 17.9711 8.04368 17.9677 8.03243C17.9641 8.02033 17.9595 8.00863 17.9553 7.99681C17.9512 7.98556 17.9475 7.97424 17.943 7.96317C17.9384 7.95213 17.933 7.94155 17.9279 7.93079C17.9225 7.91936 17.9175 7.90783 17.9115 7.89665C17.9059 7.88635 17.8996 7.87654 17.8937 7.86652C17.8871 7.85555 17.8809 7.84444 17.8738 7.83376C17.8664 7.82268 17.8581 7.81228 17.8502 7.80166C17.8435 7.79269 17.8372 7.78352 17.8301 7.7748C17.8147 7.75597 17.7983 7.7379 17.7812 7.72066L17.7804 7.71985L14.7804 4.71983C14.4875 4.42694 14.0126 4.42694 13.7197 4.71983C13.4268 5.01272 13.4268 5.48761 13.7197 5.7805L15.4394 7.50019H6.74999C6.33577 7.50019 5.99999 7.83597 5.99999 8.25019C5.99999 8.6644 6.33577 9.00018 6.74999 9.00018H15.4394L13.7197 10.7199C13.4268 11.0128 13.4268 11.4877 13.7197 11.7805C14.0126 12.0734 14.4875 12.0734 14.7804 11.7805L17.7804 8.78053L17.7812 8.77972C17.7983 8.76241 17.8147 8.74431 17.8301 8.72547Z" fill="#009ED4"/>
</svg>
